<svg xmlns="http://www.w3.org/2000/svg" width="184" height="184"><g><g><path d="M 0 0 L 184 0 L 184 184 L 0 184 Z" fill="transparent"></path><g transform="translate(18.4 18.4)"><path d="M 0 73.6 C 0 32.952 32.952 0 73.6 0 C 114.248 0 147.2 32.952 147.2 73.6 C 147.2 114.248 114.248 147.2 73.6 147.2 C 32.952 147.2 0 114.248 0 73.6 Z" fill="transparent" stroke-width="0.92" stroke="rgb(60,36,21)" stroke-miterlimit="2.3000000000000003" stroke-dasharray=""></path><path d="M 2.3 73.6 C 2.3 34.222 34.222 2.3 73.6 2.3 C 112.978 2.3 144.9 34.222 144.9 73.6 C 144.9 112.978 112.978 144.9 73.6 144.9 C 34.222 144.9 2.3 112.978 2.3 73.6 Z" fill="transparent" stroke-width="0.92" stroke="rgb(60,36,21)" stroke-miterlimit="2.3000000000000003" stroke-dasharray=""></path></g><g transform="translate(38.252 37.513)"><g transform="translate(0 32.633)"><path d="M 94.964 1.338 C 94.251 1.292 93.653 1.844 93.607 2.534 L 93.607 2.695 C 93.653 3.04 93.86 3.362 94.136 3.592 C 94.274 3.684 94.458 3.753 94.642 3.73 L 94.734 3.73 C 95.102 3.73 95.378 3.431 95.378 3.086 C 95.378 2.718 95.079 2.442 94.734 2.442 C 94.504 2.442 94.274 2.58 94.159 2.787 C 94.136 2.718 94.113 2.672 94.113 2.672 C 94.09 2.258 94.435 1.89 94.872 1.89 L 94.964 1.89 C 95.585 1.913 96.068 2.396 96.045 3.017 L 96.045 3.04 C 96.045 4.512 94.711 4.811 93.561 4.811 L 74.839 4.811 C 75.069 4.696 75.276 4.535 75.46 4.351 C 75.831 3.999 76.032 3.504 76.012 2.994 C 76.012 2.488 75.805 2.028 75.437 1.683 C 75.069 1.361 74.609 1.2 74.149 1.2 C 73.896 1.2 73.643 1.246 73.413 1.384 C 73.091 1.568 72.861 1.89 72.815 2.258 C 72.769 2.58 72.884 2.902 73.137 3.109 C 73.413 3.316 73.804 3.362 74.103 3.178 C 74.402 3.017 74.517 2.649 74.333 2.35 C 74.241 2.166 74.034 2.051 73.827 2.028 C 73.597 2.028 73.39 2.166 73.298 2.373 L 73.298 2.327 C 73.321 2.12 73.459 1.936 73.643 1.844 C 74.126 1.637 74.701 1.729 75.092 2.074 C 75.345 2.327 75.506 2.649 75.506 3.017 C 75.506 3.385 75.368 3.753 75.092 4.006 C 74.678 4.42 74.103 4.65 73.505 4.627 C 72.838 4.627 72.056 4.397 71.136 3.96 C 70.239 3.5 69.388 2.948 68.583 2.35 C 67.801 1.752 66.996 1.223 66.122 0.763 C 65.869 0.625 65.593 0.51 65.34 0.418 L 65.317 0.395 C 65.294 0.372 65.248 0.372 65.225 0.372 C 64.604 0.142 63.96 0.027 63.293 0.004 C 62.327 -0.042 61.384 0.349 60.717 1.085 C 60.119 1.821 59.935 2.81 60.211 3.73 C 60.326 4.098 60.556 4.42 60.855 4.673 L 60.763 4.673 C 60.234 4.65 59.728 4.558 59.222 4.42 C 58.854 4.305 58.509 4.098 58.233 3.822 L 58.095 3.661 L 58.026 3.868 C 57.911 4.236 57.773 4.535 57.405 4.719 C 57.29 4.765 57.175 4.811 57.06 4.834 L 56.692 4.834 C 55.565 4.834 54.231 4.535 54.231 3.063 C 54.208 2.442 54.691 1.936 55.289 1.913 L 55.312 1.913 C 55.726 1.867 56.117 2.189 56.14 2.603 L 56.14 2.695 C 56.14 2.741 56.117 2.787 56.094 2.833 C 55.91 2.511 55.519 2.396 55.197 2.58 C 54.875 2.764 54.76 3.155 54.944 3.477 C 55.059 3.684 55.266 3.799 55.519 3.799 L 55.542 3.799 C 55.749 3.822 55.933 3.753 56.117 3.661 C 56.393 3.454 56.6 3.132 56.646 2.764 L 56.646 2.718 C 56.669 2.005 56.117 1.407 55.404 1.407 L 55.289 1.407 C 54.507 1.407 53.84 1.982 53.702 2.764 C 53.587 1.982 52.92 1.407 52.115 1.407 C 51.402 1.361 50.804 1.913 50.758 2.603 L 50.758 2.764 C 50.804 3.109 51.011 3.431 51.287 3.661 C 51.425 3.753 51.609 3.799 51.793 3.799 L 51.885 3.799 C 52.253 3.799 52.529 3.5 52.529 3.155 C 52.529 2.81 52.23 2.511 51.885 2.511 C 51.655 2.511 51.425 2.649 51.31 2.833 C 51.287 2.787 51.287 2.741 51.264 2.718 C 51.241 2.304 51.586 1.936 52 1.936 L 52.092 1.936 C 52.713 1.959 53.196 2.442 53.173 3.063 L 53.173 3.086 C 53.173 4.558 51.839 4.857 50.712 4.857 L 50.367 4.857 C 50.229 4.834 50.114 4.788 49.999 4.742 C 49.631 4.558 49.493 4.259 49.378 3.891 L 49.309 3.684 L 49.171 3.845 C 48.895 4.121 48.55 4.328 48.182 4.443 C 47.676 4.581 47.17 4.65 46.641 4.696 L 46.618 4.696 C 46.917 4.443 47.147 4.121 47.262 3.753 C 47.538 2.856 47.354 1.867 46.756 1.108 C 46.112 0.372 45.169 -0.019 44.18 0.027 C 43.513 0.05 42.869 0.165 42.248 0.395 C 42.202 0.395 42.179 0.418 42.156 0.418 L 42.133 0.441 C 41.857 0.533 41.604 0.648 41.351 0.786 C 40.5 1.246 39.695 1.775 38.913 2.35 C 38.108 2.948 37.257 3.5 36.36 3.96 C 35.44 4.397 34.658 4.627 33.991 4.627 C 33.393 4.65 32.818 4.42 32.404 4.006 C 32.128 3.753 31.99 3.385 31.99 3.017 C 31.99 2.649 32.151 2.327 32.404 2.074 C 32.795 1.729 33.37 1.637 33.853 1.844 C 34.037 1.936 34.175 2.12 34.198 2.327 L 34.198 2.373 C 34.037 2.074 33.692 1.959 33.393 2.12 C 33.094 2.281 32.979 2.626 33.14 2.925 C 33.163 2.971 33.209 3.017 33.232 3.063 C 33.278 3.109 33.324 3.178 33.393 3.201 C 33.692 3.385 34.083 3.339 34.359 3.132 C 34.612 2.925 34.727 2.603 34.681 2.281 C 34.635 1.913 34.405 1.591 34.083 1.407 C 33.853 1.292 33.6 1.223 33.347 1.223 C 32.864 1.223 32.404 1.384 32.059 1.706 C 31.691 2.051 31.484 2.511 31.484 3.017 C 31.484 3.523 31.691 4.006 32.036 4.374 C 32.22 4.558 32.427 4.719 32.657 4.834 L 13.935 4.834 C 12.808 4.834 11.451 4.535 11.451 3.063 C 11.428 2.442 11.911 1.936 12.509 1.913 L 12.532 1.913 C 12.946 1.867 13.337 2.189 13.36 2.603 L 13.36 2.672 C 13.36 2.718 13.337 2.764 13.314 2.81 C 13.13 2.488 12.739 2.373 12.417 2.557 C 12.095 2.741 11.98 3.132 12.164 3.454 C 12.279 3.661 12.486 3.799 12.739 3.799 L 12.762 3.799 C 12.969 3.822 13.153 3.753 13.314 3.661 C 13.59 3.454 13.797 3.132 13.843 2.764 L 13.843 2.718 C 13.866 2.005 13.314 1.407 12.601 1.407 L 12.486 1.407 C 11.589 1.407 10.876 2.143 10.876 3.04 L 10.876 3.063 C 10.876 3.914 11.267 5.363 13.866 5.363 L 50.712 5.363 C 52.966 5.363 53.564 4.305 53.679 3.454 C 53.794 4.305 54.392 5.363 56.646 5.363 L 93.492 5.363 C 96.091 5.363 96.482 3.937 96.482 3.063 C 96.505 2.166 95.792 1.43 94.895 1.407 Z M 35.555 4.765 C 35.9 4.65 36.222 4.512 36.544 4.351 C 37.464 3.868 38.338 3.316 39.166 2.695 C 39.465 2.465 39.787 2.258 40.086 2.051 C 39.994 2.189 39.925 2.304 39.856 2.465 C 39.442 3.408 39.465 4.213 39.902 4.765 L 39.925 4.788 Z M 45.698 4.512 C 45.606 4.535 45.537 4.535 45.445 4.535 C 45.307 4.535 45.169 4.512 45.054 4.466 C 45.376 4.443 45.629 4.167 45.606 3.845 C 45.606 3.73 45.56 3.615 45.491 3.523 C 45.376 3.316 45.146 3.224 44.916 3.247 C 44.502 3.293 44.203 3.638 44.203 4.052 C 44.203 4.328 44.318 4.581 44.525 4.742 L 44.295 4.742 L 43.513 4.765 L 42.087 4.765 C 42.11 4.742 42.133 4.696 42.156 4.673 C 42.363 4.374 42.432 4.006 42.317 3.684 C 42.225 3.385 41.972 3.132 41.673 3.04 C 41.558 2.994 41.443 2.994 41.328 2.994 C 41.029 2.971 40.73 3.132 40.592 3.385 C 40.477 3.638 40.546 3.96 40.776 4.121 C 40.891 4.213 41.029 4.259 41.144 4.236 L 41.167 4.236 C 41.489 4.236 41.742 3.96 41.742 3.661 C 41.788 3.707 41.834 3.776 41.857 3.845 C 41.926 4.029 41.88 4.236 41.765 4.397 C 41.604 4.627 41.351 4.765 41.052 4.765 L 41.006 4.765 C 40.73 4.765 40.477 4.65 40.293 4.42 C 39.856 3.891 40.109 3.086 40.316 2.649 C 40.592 2.051 41.259 1.43 42.317 0.832 C 42.915 0.602 43.536 0.487 44.157 0.464 C 44.985 0.418 45.79 0.763 46.342 1.384 C 46.825 1.982 46.986 2.787 46.756 3.523 C 46.618 4.029 46.204 4.397 45.698 4.512 Z M 67.18 4.42 C 66.996 4.627 66.743 4.765 66.467 4.765 L 66.421 4.765 C 66.145 4.765 65.869 4.627 65.708 4.397 C 65.593 4.236 65.547 4.029 65.616 3.845 C 65.639 3.776 65.685 3.73 65.731 3.661 C 65.731 3.983 65.984 4.236 66.306 4.236 L 66.329 4.236 C 66.467 4.259 66.605 4.213 66.697 4.121 C 66.927 3.937 66.996 3.638 66.881 3.385 C 66.743 3.132 66.444 2.994 66.168 3.017 C 66.053 3.017 65.938 3.04 65.823 3.063 C 65.524 3.155 65.271 3.408 65.179 3.707 C 65.064 4.052 65.133 4.42 65.34 4.696 C 65.363 4.719 65.386 4.765 65.409 4.788 L 63.983 4.788 L 63.201 4.765 L 62.971 4.765 C 63.178 4.604 63.293 4.351 63.293 4.075 C 63.293 3.661 62.994 3.316 62.58 3.27 C 62.35 3.247 62.12 3.339 62.005 3.546 C 61.798 3.799 61.844 4.167 62.097 4.374 C 62.189 4.443 62.304 4.489 62.419 4.489 C 62.281 4.535 62.166 4.558 62.028 4.558 C 61.936 4.558 61.867 4.558 61.775 4.535 C 61.269 4.443 60.832 4.052 60.694 3.546 C 60.464 2.81 60.625 2.005 61.108 1.407 C 61.66 0.786 62.465 0.441 63.293 0.487 C 63.914 0.51 64.535 0.625 65.133 0.855 C 66.191 1.453 66.858 2.074 67.134 2.672 C 67.364 3.086 67.64 3.891 67.18 4.42 Z M 67.548 4.765 L 67.571 4.742 C 68.031 4.19 68.054 3.385 67.64 2.442 C 67.571 2.304 67.502 2.166 67.41 2.028 C 67.732 2.235 68.031 2.465 68.353 2.695 C 69.181 3.316 70.055 3.868 70.975 4.351 C 71.297 4.512 71.619 4.65 71.964 4.765 Z M 93.561 35.332 L 56.715 35.332 C 54.461 35.332 53.863 36.39 53.748 37.241 C 53.633 36.39 53.035 35.332 50.781 35.332 L 13.935 35.332 C 11.336 35.332 10.945 36.758 10.945 37.632 C 10.922 38.529 11.635 39.265 12.532 39.288 L 12.555 39.288 C 13.268 39.334 13.866 38.782 13.912 38.092 L 13.912 37.931 C 13.866 37.586 13.659 37.264 13.383 37.034 C 13.245 36.942 13.061 36.896 12.877 36.896 L 12.762 36.896 C 12.394 36.896 12.118 37.195 12.095 37.54 C 12.095 37.908 12.394 38.184 12.739 38.207 C 12.969 38.207 13.199 38.069 13.314 37.862 C 13.337 37.908 13.337 37.954 13.36 38 C 13.36 38.437 13.015 38.782 12.601 38.782 L 12.532 38.782 C 11.911 38.759 11.428 38.276 11.451 37.655 L 11.451 37.632 C 11.451 36.183 12.808 35.861 13.935 35.861 L 32.657 35.861 C 32.427 35.976 32.22 36.137 32.036 36.321 C 31.668 36.689 31.461 37.172 31.484 37.678 C 31.484 38.161 31.691 38.644 32.059 38.966 C 32.427 39.288 32.887 39.449 33.347 39.449 C 33.6 39.449 33.853 39.403 34.083 39.265 C 34.405 39.081 34.635 38.759 34.681 38.391 C 34.727 38.069 34.612 37.747 34.359 37.54 C 34.083 37.333 33.692 37.287 33.393 37.471 C 33.324 37.517 33.278 37.563 33.232 37.609 C 33.002 37.839 33.002 38.23 33.255 38.46 C 33.508 38.69 33.876 38.69 34.106 38.437 C 34.152 38.391 34.175 38.345 34.198 38.299 L 34.198 38.345 C 34.175 38.552 34.037 38.736 33.853 38.828 C 33.37 39.035 32.795 38.943 32.404 38.598 C 32.151 38.345 31.99 38.023 31.99 37.655 C 31.99 37.287 32.128 36.919 32.404 36.666 C 32.818 36.252 33.393 36.022 33.991 36.045 C 34.658 36.045 35.44 36.275 36.36 36.712 C 37.257 37.172 38.108 37.724 38.913 38.322 C 39.695 38.897 40.523 39.426 41.374 39.886 C 41.627 40.024 41.903 40.139 42.179 40.231 L 42.202 40.254 C 42.225 40.277 42.271 40.277 42.317 40.277 C 42.938 40.507 43.582 40.622 44.249 40.645 C 45.215 40.691 46.158 40.277 46.802 39.541 C 47.4 38.805 47.584 37.816 47.308 36.919 C 47.193 36.551 46.963 36.229 46.664 35.976 L 46.756 35.976 C 47.285 36.022 47.791 36.091 48.297 36.229 C 48.665 36.344 49.01 36.551 49.286 36.85 L 49.424 37.011 L 49.493 36.804 C 49.608 36.436 49.746 36.137 50.114 35.953 C 50.229 35.907 50.344 35.861 50.459 35.838 L 50.827 35.838 C 51.954 35.838 53.288 36.137 53.288 37.609 C 53.311 38.23 52.828 38.736 52.23 38.759 L 52.207 38.759 C 51.793 38.805 51.402 38.483 51.379 38.069 L 51.379 38 C 51.379 37.954 51.402 37.908 51.425 37.862 C 51.54 38.069 51.77 38.184 52 38.207 C 52.368 38.184 52.644 37.885 52.621 37.517 C 52.598 37.195 52.345 36.919 52 36.896 L 51.908 36.896 C 51.701 36.873 51.517 36.942 51.333 37.034 C 51.057 37.241 50.85 37.563 50.804 37.931 L 50.804 37.977 C 50.781 38.69 51.333 39.288 52.046 39.311 L 52.161 39.311 C 52.943 39.311 53.61 38.736 53.725 37.954 C 53.84 38.736 54.507 39.311 55.312 39.311 C 56.025 39.357 56.623 38.805 56.669 38.115 L 56.669 37.954 C 56.623 37.609 56.416 37.287 56.14 37.057 C 55.979 36.965 55.818 36.919 55.634 36.919 L 55.542 36.919 C 55.174 36.919 54.898 37.218 54.898 37.563 C 54.898 37.908 55.197 38.207 55.542 38.207 C 55.772 38.207 56.002 38.069 56.117 37.862 C 56.14 37.908 56.14 37.954 56.163 38 C 56.163 38.414 55.841 38.782 55.404 38.782 L 55.312 38.782 C 54.691 38.759 54.208 38.276 54.231 37.655 L 54.231 37.632 C 54.231 36.183 55.565 35.861 56.692 35.861 L 57.037 35.861 C 57.175 35.884 57.29 35.93 57.405 35.976 C 57.773 36.16 57.911 36.459 58.026 36.827 L 58.095 37.034 L 58.233 36.873 C 58.509 36.597 58.854 36.39 59.222 36.275 C 59.728 36.137 60.234 36.068 60.763 36.022 L 60.855 36.022 C 60.556 36.275 60.326 36.597 60.211 36.965 C 59.935 37.862 60.142 38.851 60.717 39.587 C 61.361 40.323 62.304 40.714 63.293 40.668 C 63.96 40.645 64.604 40.53 65.225 40.3 C 65.271 40.3 65.294 40.277 65.34 40.277 L 65.363 40.254 C 65.639 40.162 65.892 40.024 66.145 39.909 C 66.996 39.449 67.824 38.92 68.583 38.345 C 69.388 37.747 70.239 37.195 71.136 36.735 C 72.056 36.298 72.838 36.068 73.505 36.068 C 74.103 36.045 74.678 36.275 75.092 36.689 C 75.368 36.942 75.506 37.31 75.506 37.678 C 75.506 38.046 75.345 38.368 75.092 38.621 C 74.701 38.966 74.126 39.058 73.643 38.851 C 73.459 38.759 73.321 38.575 73.298 38.368 L 73.298 38.322 C 73.459 38.621 73.827 38.713 74.103 38.552 C 74.402 38.391 74.494 38.023 74.333 37.747 C 74.31 37.701 74.287 37.655 74.241 37.632 C 74.195 37.586 74.149 37.517 74.08 37.494 C 73.781 37.31 73.39 37.333 73.114 37.563 C 72.861 37.793 72.746 38.115 72.792 38.437 C 72.838 38.805 73.068 39.127 73.39 39.311 C 73.62 39.426 73.873 39.495 74.126 39.495 C 74.609 39.495 75.069 39.334 75.414 39.012 C 75.782 38.667 75.989 38.207 75.989 37.724 C 75.989 37.218 75.782 36.735 75.437 36.367 C 75.253 36.183 75.046 36.022 74.816 35.907 L 93.538 35.907 C 94.665 35.907 96.022 36.206 96.022 37.678 C 96.045 38.299 95.562 38.805 94.964 38.828 L 94.941 38.828 C 94.527 38.874 94.136 38.552 94.09 38.138 L 94.09 38.069 C 94.09 38.023 94.113 37.977 94.136 37.931 C 94.32 38.253 94.711 38.368 95.033 38.184 C 95.355 38 95.47 37.609 95.286 37.287 C 95.171 37.08 94.941 36.942 94.711 36.942 L 94.688 36.942 C 94.481 36.919 94.297 36.988 94.113 37.08 C 93.837 37.287 93.63 37.609 93.584 37.977 L 93.584 38.023 C 93.561 38.736 94.113 39.334 94.826 39.357 L 94.941 39.357 C 95.838 39.357 96.551 38.621 96.551 37.724 L 96.551 37.701 C 96.574 36.781 96.183 35.332 93.561 35.332 Z M 39.166 37.931 C 38.338 37.31 37.464 36.758 36.544 36.275 C 36.222 36.114 35.9 35.976 35.555 35.861 L 39.948 35.861 L 39.925 35.884 C 39.465 36.436 39.442 37.241 39.879 38.184 C 39.948 38.322 40.017 38.46 40.109 38.598 C 39.787 38.368 39.465 38.138 39.166 37.931 Z M 46.779 37.103 C 47.009 37.839 46.848 38.644 46.365 39.242 C 45.813 39.863 45.008 40.208 44.18 40.162 C 43.559 40.139 42.938 40.024 42.34 39.794 C 41.282 39.173 40.615 38.575 40.339 37.977 C 40.132 37.54 39.879 36.735 40.316 36.206 C 40.5 35.999 40.753 35.861 41.029 35.861 L 41.075 35.861 C 41.351 35.861 41.627 35.999 41.788 36.229 C 41.903 36.39 41.949 36.597 41.88 36.781 C 41.857 36.85 41.811 36.919 41.765 36.965 C 41.765 36.643 41.512 36.39 41.19 36.39 L 41.167 36.39 C 41.029 36.367 40.891 36.413 40.799 36.505 C 40.569 36.689 40.5 36.988 40.615 37.241 C 40.753 37.517 41.052 37.655 41.351 37.632 C 41.466 37.632 41.581 37.609 41.696 37.586 C 41.995 37.494 42.248 37.241 42.34 36.942 C 42.455 36.597 42.386 36.229 42.179 35.953 C 42.156 35.93 42.133 35.884 42.11 35.861 L 43.536 35.861 L 44.318 35.884 L 44.548 35.884 C 44.341 36.045 44.226 36.298 44.226 36.574 C 44.226 36.988 44.525 37.333 44.939 37.379 C 45.169 37.402 45.376 37.287 45.491 37.103 C 45.56 37.011 45.606 36.873 45.606 36.735 C 45.606 36.436 45.376 36.16 45.054 36.137 C 45.192 36.091 45.307 36.068 45.445 36.068 C 45.537 36.068 45.606 36.068 45.698 36.091 C 46.204 36.206 46.641 36.597 46.779 37.103 Z M 65.179 39.794 C 64.581 40.024 63.96 40.139 63.339 40.162 C 62.511 40.208 61.706 39.863 61.154 39.242 C 60.671 38.644 60.51 37.839 60.74 37.103 C 60.878 36.597 61.292 36.229 61.798 36.114 C 61.89 36.091 61.959 36.091 62.051 36.091 C 62.189 36.091 62.327 36.114 62.442 36.16 C 62.12 36.183 61.867 36.459 61.89 36.781 C 61.89 36.896 61.936 37.011 62.028 37.103 C 62.143 37.31 62.373 37.402 62.603 37.379 C 63.017 37.333 63.316 36.988 63.316 36.574 C 63.316 36.298 63.201 36.045 62.994 35.884 L 63.224 35.884 L 64.006 35.861 L 65.432 35.861 C 65.409 35.884 65.386 35.93 65.363 35.953 C 65.156 36.229 65.087 36.62 65.202 36.942 C 65.294 37.241 65.547 37.494 65.846 37.586 C 65.961 37.632 66.076 37.632 66.191 37.632 C 66.49 37.655 66.789 37.494 66.927 37.241 C 67.042 36.988 66.973 36.666 66.743 36.505 C 66.628 36.413 66.49 36.367 66.375 36.39 L 66.352 36.39 C 66.03 36.413 65.777 36.666 65.777 36.965 C 65.731 36.919 65.685 36.85 65.662 36.781 C 65.593 36.597 65.639 36.39 65.754 36.229 C 65.915 35.999 66.191 35.861 66.467 35.861 L 66.513 35.861 C 66.789 35.861 67.042 35.976 67.226 36.206 C 67.663 36.735 67.41 37.54 67.226 37.977 C 66.904 38.575 66.237 39.196 65.179 39.794 Z M 70.952 36.275 C 70.032 36.758 69.158 37.31 68.33 37.931 C 68.031 38.161 67.709 38.368 67.41 38.575 C 67.502 38.437 67.571 38.322 67.64 38.184 C 68.054 37.241 68.031 36.436 67.571 35.884 L 67.548 35.861 L 71.941 35.861 C 71.596 35.976 71.274 36.114 70.952 36.275 Z M 107.039 26.5 C 106.786 26.201 106.418 26.063 106.027 26.086 C 105.843 26.109 105.406 26.178 105.222 26.523 C 105.13 26.73 105.13 26.983 105.245 27.19 C 105.337 27.328 105.475 27.397 105.613 27.397 L 105.636 27.397 C 105.797 27.397 105.912 27.259 105.889 27.121 C 105.889 27.006 105.797 26.891 105.682 26.868 L 105.682 26.776 C 105.774 26.684 105.912 26.638 106.05 26.638 C 106.257 26.615 106.464 26.707 106.602 26.868 C 106.763 27.029 106.855 27.259 106.855 27.489 C 106.947 28.156 106.648 28.823 106.073 29.191 C 105.337 29.72 104.21 29.766 103.221 29.766 L 101.381 29.766 C 100.645 29.743 99.909 29.812 99.196 29.996 C 98.046 30.341 96.919 31.284 97.149 32.917 C 97.31 33.883 98 34.665 98.943 34.941 C 99.219 35.033 99.518 35.079 99.817 35.079 C 100.461 35.102 101.082 34.849 101.542 34.389 C 101.91 33.998 102.094 33.492 102.071 32.963 C 102.071 32.503 101.887 32.043 101.542 31.721 C 101.174 31.353 100.668 31.146 100.162 31.146 C 99.863 31.146 99.564 31.215 99.288 31.376 C 98.989 31.537 98.805 31.836 98.736 32.158 C 98.667 32.503 98.759 32.894 98.966 33.17 C 99.173 33.446 99.472 33.607 99.817 33.63 C 100.093 33.653 100.369 33.538 100.53 33.308 C 100.576 33.262 100.599 33.193 100.599 33.101 C 100.599 33.032 100.553 32.963 100.507 32.917 C 100.392 32.825 100.231 32.825 100.116 32.94 C 100.047 33.009 99.955 33.055 99.863 33.055 L 99.84 33.055 C 99.679 33.032 99.518 32.963 99.426 32.825 C 99.311 32.664 99.242 32.434 99.288 32.25 C 99.334 32.066 99.426 31.905 99.587 31.813 C 100.07 31.537 100.714 31.629 101.174 32.089 C 101.404 32.319 101.519 32.618 101.519 32.94 C 101.542 33.331 101.404 33.699 101.128 33.975 C 100.576 34.481 99.794 34.642 99.104 34.389 C 98.368 34.182 97.816 33.561 97.701 32.802 C 97.54 31.721 98.161 30.847 99.357 30.479 C 100.024 30.318 100.691 30.249 101.381 30.272 L 103.175 30.272 C 104.325 30.272 105.521 30.226 106.395 29.582 C 107.131 29.099 107.522 28.248 107.384 27.397 C 107.407 27.075 107.269 26.753 107.039 26.5 Z M 99.242 10.653 C 99.955 10.837 100.691 10.906 101.427 10.883 L 103.267 10.883 C 104.256 10.883 105.383 10.929 106.119 11.458 C 106.694 11.826 106.993 12.493 106.901 13.16 C 106.878 13.39 106.786 13.597 106.648 13.781 C 106.51 13.942 106.303 14.034 106.096 14.011 C 105.866 13.988 105.751 13.919 105.728 13.873 L 105.728 13.781 C 105.843 13.758 105.935 13.643 105.935 13.528 C 105.935 13.459 105.912 13.39 105.866 13.321 C 105.82 13.275 105.751 13.229 105.682 13.229 L 105.659 13.229 C 105.498 13.229 105.36 13.321 105.291 13.436 C 105.176 13.643 105.176 13.896 105.268 14.103 C 105.429 14.448 105.889 14.517 106.073 14.54 L 106.188 14.54 C 106.533 14.54 106.855 14.379 107.085 14.126 C 107.315 13.873 107.453 13.551 107.499 13.206 C 107.614 12.332 107.223 11.481 106.51 11.021 C 105.636 10.4 104.44 10.331 103.29 10.331 L 101.45 10.331 C 100.76 10.354 100.093 10.285 99.426 10.124 C 98.23 9.756 97.609 8.882 97.77 7.801 C 97.908 7.042 98.437 6.444 99.173 6.214 C 99.863 5.961 100.645 6.122 101.197 6.628 C 101.45 6.904 101.588 7.272 101.588 7.663 C 101.588 7.985 101.473 8.284 101.243 8.514 C 100.76 8.974 100.116 9.066 99.656 8.79 C 99.495 8.698 99.38 8.537 99.357 8.353 C 99.311 8.146 99.357 7.939 99.495 7.778 C 99.587 7.64 99.748 7.571 99.909 7.548 L 99.932 7.548 C 100.024 7.548 100.139 7.594 100.185 7.663 C 100.277 7.778 100.461 7.778 100.576 7.686 C 100.622 7.64 100.668 7.571 100.668 7.502 C 100.668 7.433 100.645 7.364 100.599 7.295 C 100.415 7.088 100.162 6.973 99.886 6.996 C 99.541 7.019 99.242 7.18 99.035 7.456 C 98.828 7.755 98.736 8.123 98.805 8.468 C 98.874 8.79 99.081 9.089 99.357 9.25 C 99.61 9.411 99.909 9.48 100.231 9.48 C 100.737 9.48 101.243 9.273 101.611 8.905 C 101.956 8.583 102.14 8.123 102.14 7.663 C 102.163 7.134 101.956 6.628 101.611 6.237 C 101.151 5.777 100.53 5.524 99.886 5.547 C 99.587 5.547 99.311 5.593 99.012 5.685 C 98.069 5.961 97.379 6.743 97.218 7.709 C 96.965 9.365 98.115 10.308 99.242 10.653 Z M 8.254 29.973 C 7.541 29.789 6.805 29.72 6.069 29.743 L 4.229 29.743 C 3.24 29.743 2.113 29.697 1.377 29.168 C 0.802 28.8 0.503 28.133 0.595 27.466 C 0.618 27.236 0.71 27.029 0.848 26.845 C 0.986 26.684 1.193 26.592 1.4 26.615 C 1.538 26.615 1.653 26.661 1.768 26.753 C 1.768 26.776 1.791 26.822 1.791 26.845 C 1.676 26.868 1.584 26.983 1.584 27.098 C 1.584 27.236 1.699 27.374 1.837 27.374 L 1.86 27.374 C 2.021 27.374 2.159 27.305 2.228 27.167 C 2.343 26.96 2.366 26.707 2.251 26.5 C 2.09 26.155 1.63 26.086 1.446 26.063 C 1.055 26.04 0.687 26.178 0.434 26.477 C 0.204 26.73 0.066 27.052 0.02 27.397 C -0.095 28.271 0.296 29.122 1.009 29.582 C 1.883 30.226 3.079 30.272 4.229 30.272 L 6.046 30.272 C 6.736 30.249 7.403 30.318 8.07 30.479 C 9.266 30.847 9.887 31.721 9.726 32.802 C 9.588 33.561 9.036 34.159 8.323 34.389 C 7.633 34.642 6.851 34.481 6.299 33.975 C 6.046 33.699 5.908 33.331 5.908 32.94 C 5.908 32.618 6.023 32.319 6.253 32.089 C 6.736 31.629 7.38 31.537 7.84 31.813 C 8.001 31.905 8.116 32.066 8.139 32.25 C 8.185 32.457 8.139 32.664 8.001 32.825 C 7.909 32.963 7.748 33.032 7.564 33.055 L 7.541 33.055 C 7.449 33.055 7.334 33.009 7.288 32.94 C 7.196 32.825 7.012 32.825 6.897 32.917 C 6.782 33.009 6.782 33.193 6.874 33.308 C 7.058 33.515 7.311 33.63 7.587 33.63 C 7.932 33.607 8.231 33.446 8.438 33.17 C 8.645 32.871 8.737 32.503 8.668 32.158 C 8.599 31.836 8.392 31.537 8.116 31.376 C 7.863 31.215 7.564 31.146 7.242 31.146 C 6.736 31.146 6.23 31.353 5.862 31.721 C 5.517 32.043 5.333 32.503 5.333 32.963 C 5.31 33.492 5.517 33.998 5.862 34.389 C 6.322 34.849 6.943 35.102 7.587 35.079 C 7.886 35.079 8.185 35.033 8.461 34.941 C 9.404 34.665 10.094 33.883 10.255 32.917 C 10.531 31.261 9.381 30.318 8.254 29.973 Z M 8.507 5.708 C 8.231 5.616 7.932 5.57 7.633 5.57 C 6.989 5.547 6.368 5.8 5.908 6.26 C 5.54 6.651 5.356 7.157 5.379 7.686 C 5.379 8.146 5.563 8.606 5.908 8.928 C 6.276 9.296 6.782 9.503 7.288 9.503 C 7.587 9.503 7.886 9.434 8.162 9.273 C 8.461 9.112 8.668 8.813 8.714 8.491 C 8.783 8.146 8.691 7.778 8.484 7.479 C 8.277 7.203 7.978 7.042 7.633 7.019 C 7.357 6.996 7.081 7.111 6.92 7.318 C 6.874 7.364 6.851 7.433 6.851 7.525 C 6.851 7.594 6.897 7.663 6.943 7.709 C 7.058 7.801 7.219 7.801 7.334 7.686 C 7.403 7.617 7.495 7.571 7.587 7.571 L 7.61 7.571 C 7.771 7.594 7.932 7.663 8.047 7.801 C 8.185 7.962 8.231 8.192 8.185 8.376 C 8.139 8.56 8.047 8.721 7.886 8.813 C 7.403 9.112 6.759 8.997 6.299 8.537 C 6.069 8.307 5.954 8.008 5.954 7.686 C 5.931 7.295 6.069 6.927 6.345 6.651 C 6.897 6.145 7.679 5.984 8.369 6.237 C 9.105 6.444 9.657 7.065 9.795 7.824 C 9.956 8.905 9.335 9.779 8.139 10.147 C 7.472 10.308 6.805 10.377 6.115 10.354 L 4.321 10.354 C 3.171 10.354 1.975 10.4 1.101 11.044 C 0.365 11.527 -0.026 12.378 0.112 13.229 C 0.135 13.574 0.296 13.896 0.526 14.149 C 0.756 14.402 1.078 14.563 1.423 14.563 L 1.538 14.563 C 1.722 14.54 2.159 14.471 2.343 14.126 C 2.435 13.919 2.435 13.666 2.32 13.459 C 2.251 13.321 2.09 13.252 1.952 13.252 L 1.929 13.252 C 1.86 13.252 1.791 13.275 1.745 13.344 C 1.699 13.39 1.676 13.459 1.676 13.551 C 1.676 13.666 1.768 13.781 1.883 13.804 C 1.883 13.827 1.883 13.873 1.86 13.896 C 1.837 13.919 1.722 14.011 1.492 14.034 C 1.285 14.057 1.078 13.965 0.94 13.804 C 0.802 13.643 0.71 13.413 0.687 13.183 C 0.595 12.516 0.894 11.849 1.469 11.481 C 2.205 10.952 3.332 10.906 4.321 10.906 L 6.161 10.906 C 6.897 10.929 7.633 10.86 8.346 10.676 C 9.496 10.331 10.623 9.388 10.393 7.755 C 10.14 6.789 9.45 5.984 8.507 5.708 Z" fill="rgb(60,36,21)"></path><g transform="translate(3.7 6.582)"><path d="M 91.586 27.209 L 8.51 27.209 L 8.51 26.841 C 8.51 22.356 4.876 18.722 0.368 18.699 L 0 18.699 L 0 7.889 L 0.368 7.889 C 4.623 7.889 8.165 4.577 8.487 0.345 L 8.51 0 L 91.931 0 L 91.954 0.345 C 92.253 4.462 95.588 7.728 99.728 7.889 L 100.073 7.912 L 100.073 18.722 L 99.705 18.722 C 95.22 18.722 91.586 22.356 91.563 26.864 L 91.563 27.209 Z M 9.246 26.473 L 90.873 26.473 C 91.057 21.873 94.76 18.17 99.36 17.986 L 99.36 8.602 C 95.128 8.257 91.747 4.968 91.287 0.736 L 9.2 0.736 C 8.717 5.083 5.129 8.418 0.759 8.625 L 0.759 17.986 C 5.359 18.17 9.039 21.873 9.246 26.473 Z" fill="rgb(60,36,21)"></path><path d="M 90.183 25.737 L 9.913 25.737 L 9.89 25.622 C 9.361 21.275 5.934 17.848 1.587 17.296 L 1.472 17.273 L 1.472 9.292 L 1.587 9.269 C 5.704 8.763 9.039 5.635 9.798 1.541 L 9.821 1.449 L 90.643 1.449 L 90.666 1.541 C 91.425 5.497 94.553 8.556 98.532 9.2 L 98.647 9.223 L 98.647 17.296 L 98.532 17.319 C 94.185 17.848 90.758 21.275 90.206 25.645 Z M 10.12 25.507 L 89.953 25.507 C 90.551 21.137 93.978 17.687 98.348 17.112 L 98.348 9.476 C 94.369 8.763 91.218 5.704 90.413 1.725 L 10.028 1.725 C 9.223 5.842 5.865 8.97 1.725 9.522 L 1.725 17.112 C 6.095 17.687 9.545 21.114 10.12 25.507 Z" fill="rgb(60,36,21)"></path><path d="M 89.539 3.059 C 89.516 3.013 89.516 2.967 89.493 2.921 L 89.332 2.921 L 89.332 2.668 L 89.677 2.668 L 89.7 2.76 C 89.723 2.829 89.746 2.921 89.769 2.99 Z M 88.619 2.921 L 88.136 2.921 L 88.136 2.668 L 88.619 2.668 Z M 87.4 2.921 L 86.917 2.921 L 86.917 2.668 L 87.4 2.668 Z M 86.181 2.921 L 85.698 2.921 L 85.698 2.668 L 86.181 2.668 Z M 84.985 2.921 L 84.502 2.921 L 84.502 2.668 L 84.985 2.668 Z M 83.766 2.921 L 83.283 2.921 L 83.283 2.668 L 83.766 2.668 Z M 82.547 2.921 L 82.064 2.921 L 82.064 2.668 L 82.547 2.668 Z M 81.351 2.921 L 80.868 2.921 L 80.868 2.668 L 81.351 2.668 Z M 80.132 2.921 L 79.649 2.921 L 79.649 2.668 L 80.132 2.668 Z M 78.913 2.921 L 78.43 2.921 L 78.43 2.668 L 78.913 2.668 Z M 77.717 2.921 L 77.234 2.921 L 77.234 2.668 L 77.717 2.668 Z M 76.498 2.921 L 76.015 2.921 L 76.015 2.668 L 76.498 2.668 Z M 75.279 2.921 L 74.796 2.921 L 74.796 2.668 L 75.279 2.668 Z M 74.083 2.921 L 73.6 2.921 L 73.6 2.668 L 74.083 2.668 Z M 72.864 2.921 L 72.381 2.921 L 72.381 2.668 L 72.864 2.668 Z M 71.668 2.921 L 71.185 2.921 L 71.185 2.668 L 71.668 2.668 Z M 70.449 2.921 L 69.966 2.921 L 69.966 2.668 L 70.449 2.668 Z M 69.23 2.921 L 68.747 2.921 L 68.747 2.668 L 69.23 2.668 Z M 68.034 2.921 L 67.551 2.921 L 67.551 2.668 L 68.034 2.668 Z M 66.815 2.921 L 66.332 2.921 L 66.332 2.668 L 66.815 2.668 Z M 65.596 2.921 L 65.113 2.921 L 65.113 2.668 L 65.596 2.668 Z M 64.4 2.921 L 63.917 2.921 L 63.917 2.668 L 64.4 2.668 Z M 63.181 2.921 L 62.698 2.921 L 62.698 2.668 L 63.181 2.668 Z M 61.962 2.921 L 61.479 2.921 L 61.479 2.668 L 61.962 2.668 Z M 60.766 2.921 L 60.283 2.921 L 60.283 2.668 L 60.766 2.668 Z M 59.547 2.921 L 59.064 2.921 L 59.064 2.668 L 59.547 2.668 Z M 58.351 2.921 L 57.868 2.921 L 57.868 2.668 L 58.351 2.668 Z M 57.132 2.921 L 56.649 2.921 L 56.649 2.668 L 57.132 2.668 Z M 55.913 2.921 L 55.43 2.921 L 55.43 2.668 L 55.913 2.668 Z M 54.717 2.921 L 54.234 2.921 L 54.234 2.668 L 54.717 2.668 Z M 53.498 2.921 L 53.015 2.921 L 53.015 2.668 L 53.498 2.668 Z M 52.279 2.921 L 51.796 2.921 L 51.796 2.668 L 52.279 2.668 Z M 51.083 2.921 L 50.6 2.921 L 50.6 2.668 L 51.083 2.668 Z M 49.864 2.921 L 49.381 2.921 L 49.381 2.668 L 49.864 2.668 Z M 48.645 2.921 L 48.162 2.921 L 48.162 2.668 L 48.668 2.668 Z M 47.449 2.921 L 46.966 2.921 L 46.966 2.668 L 47.449 2.668 Z M 46.23 2.921 L 45.747 2.921 L 45.747 2.668 L 46.23 2.668 Z M 45.034 2.921 L 44.528 2.921 L 44.528 2.668 L 45.011 2.668 L 45.011 2.921 Z M 43.815 2.921 L 43.332 2.921 L 43.332 2.668 L 43.815 2.668 Z M 42.596 2.921 L 42.113 2.921 L 42.113 2.668 L 42.596 2.668 Z M 41.4 2.921 L 40.917 2.921 L 40.917 2.668 L 41.4 2.668 Z M 40.181 2.921 L 39.698 2.921 L 39.698 2.668 L 40.181 2.668 Z M 38.962 2.921 L 38.479 2.921 L 38.479 2.668 L 38.962 2.668 Z M 37.766 2.921 L 37.283 2.921 L 37.283 2.668 L 37.766 2.668 Z M 36.547 2.921 L 36.064 2.921 L 36.064 2.668 L 36.547 2.668 Z M 35.328 2.921 L 34.845 2.921 L 34.845 2.668 L 35.328 2.668 Z M 34.132 2.921 L 33.649 2.921 L 33.649 2.668 L 34.132 2.668 Z M 32.913 2.921 L 32.43 2.921 L 32.43 2.668 L 32.913 2.668 Z M 31.717 2.921 L 31.234 2.921 L 31.234 2.668 L 31.717 2.668 Z M 30.498 2.921 L 30.015 2.921 L 30.015 2.668 L 30.498 2.668 Z M 29.279 2.921 L 28.796 2.921 L 28.796 2.668 L 29.279 2.668 Z M 28.083 2.921 L 27.6 2.921 L 27.6 2.668 L 28.083 2.668 Z M 26.864 2.921 L 26.381 2.921 L 26.381 2.668 L 26.864 2.668 Z M 25.645 2.921 L 25.162 2.921 L 25.162 2.668 L 25.645 2.668 Z M 24.449 2.921 L 23.966 2.921 L 23.966 2.668 L 24.449 2.668 Z M 23.23 2.921 L 22.747 2.921 L 22.747 2.668 L 23.23 2.668 Z M 22.011 2.921 L 21.528 2.921 L 21.528 2.668 L 22.011 2.668 Z M 20.815 2.921 L 20.332 2.921 L 20.332 2.668 L 20.815 2.668 Z M 19.596 2.921 L 19.113 2.921 L 19.113 2.668 L 19.596 2.668 Z M 18.377 2.921 L 17.894 2.921 L 17.894 2.668 L 18.377 2.668 Z M 17.181 2.921 L 16.698 2.921 L 16.698 2.668 L 17.181 2.668 Z M 15.962 2.921 L 15.479 2.921 L 15.479 2.668 L 15.962 2.668 Z M 14.766 2.921 L 14.283 2.921 L 14.283 2.668 L 14.766 2.668 Z M 13.547 2.921 L 13.064 2.921 L 13.064 2.668 L 13.547 2.668 Z M 12.328 2.921 L 11.845 2.921 L 11.845 2.668 L 12.328 2.668 Z M 10.925 3.059 L 10.695 2.99 L 10.764 2.76 L 10.787 2.668 L 11.109 2.668 L 11.109 2.921 L 10.948 2.921 C 10.971 2.967 10.948 3.013 10.925 3.059 Z M 3.772 10.281 L 3.703 10.051 C 3.841 10.005 4.002 9.959 4.14 9.913 L 4.232 10.143 C 4.048 10.189 3.91 10.235 3.772 10.281 Z M 4.853 9.867 L 4.761 9.637 C 4.899 9.568 5.037 9.522 5.175 9.453 L 5.29 9.66 C 5.152 9.729 4.991 9.798 4.853 9.867 Z M 5.911 9.338 L 5.796 9.131 C 5.934 9.062 6.049 8.97 6.187 8.901 L 6.325 9.108 C 6.164 9.177 6.026 9.246 5.911 9.338 Z M 6.877 8.694 L 6.739 8.487 C 6.854 8.395 6.992 8.303 7.107 8.211 L 7.268 8.395 C 7.13 8.51 7.015 8.602 6.877 8.694 Z M 7.797 7.935 L 7.636 7.751 C 7.751 7.636 7.866 7.544 7.958 7.429 L 8.119 7.613 C 8.027 7.728 7.912 7.843 7.797 7.935 Z M 8.625 7.107 L 8.441 6.946 C 8.533 6.831 8.648 6.716 8.74 6.601 L 8.924 6.762 C 8.832 6.877 8.74 6.992 8.625 7.107 Z M 9.361 6.187 L 9.154 6.049 C 9.246 5.934 9.338 5.796 9.407 5.681 L 9.614 5.819 C 9.545 5.934 9.453 6.072 9.361 6.187 Z M 10.005 5.198 L 9.798 5.083 L 10.005 4.669 L 10.212 4.784 C 10.143 4.945 10.074 5.083 10.005 5.198 Z M 10.534 4.163 L 10.304 4.071 C 10.373 3.933 10.419 3.795 10.488 3.634 L 10.718 3.726 C 10.649 3.864 10.58 4.025 10.534 4.163 Z M 2.944 10.649 L 2.691 10.649 L 2.691 10.304 L 2.783 10.281 L 3.013 10.235 L 3.082 10.465 L 2.944 10.488 Z M 2.944 15.249 L 2.691 15.249 L 2.691 14.789 L 2.944 14.789 Z M 2.944 14.099 L 2.691 14.099 L 2.691 13.639 L 2.944 13.639 Z M 2.944 12.949 L 2.691 12.949 L 2.691 12.489 L 2.944 12.489 Z M 2.944 11.799 L 2.691 11.799 L 2.691 11.339 L 2.944 11.339 Z M 3.013 16.353 L 2.783 16.307 L 2.691 16.284 L 2.691 15.939 L 2.944 15.939 L 2.944 16.077 L 3.082 16.1 Z M 10.672 23.506 C 10.626 23.345 10.58 23.207 10.511 23.046 L 10.741 22.954 C 10.787 23.115 10.856 23.276 10.902 23.414 Z M 10.212 22.379 C 10.143 22.241 10.074 22.08 10.005 21.942 L 10.212 21.827 C 10.281 21.965 10.35 22.126 10.419 22.264 Z M 9.66 21.298 C 9.568 21.16 9.499 21.022 9.407 20.884 L 9.614 20.746 C 9.706 20.884 9.798 21.022 9.867 21.16 Z M 8.97 20.286 C 8.878 20.148 8.763 20.033 8.671 19.918 L 8.855 19.757 C 8.97 19.895 9.062 20.01 9.177 20.148 Z M 8.188 19.366 L 7.843 19.021 L 8.004 18.837 L 8.349 19.182 Z M 7.291 18.538 C 7.176 18.423 7.038 18.331 6.923 18.239 L 7.061 18.055 C 7.199 18.147 7.314 18.262 7.452 18.377 Z M 6.325 17.825 C 6.187 17.733 6.049 17.641 5.911 17.572 L 6.026 17.365 C 6.164 17.457 6.302 17.549 6.44 17.618 Z M 5.267 17.204 C 5.129 17.135 4.968 17.066 4.83 16.997 L 4.922 16.767 C 5.083 16.836 5.221 16.905 5.382 16.974 Z M 4.163 16.721 C 4.025 16.675 3.864 16.606 3.703 16.56 L 3.772 16.33 C 3.933 16.376 4.094 16.445 4.232 16.491 Z M 11.27 24.518 L 10.948 24.518 L 10.925 24.426 L 10.879 24.196 L 11.109 24.15 L 11.132 24.288 L 11.27 24.288 Z M 88.09 24.518 L 87.607 24.518 L 87.607 24.265 L 88.09 24.265 Z M 86.871 24.518 L 86.388 24.518 L 86.388 24.265 L 86.871 24.265 Z M 85.652 24.518 L 85.169 24.518 L 85.169 24.265 L 85.652 24.265 Z M 84.433 24.518 L 83.95 24.518 L 83.95 24.265 L 84.433 24.265 Z M 83.214 24.518 L 82.731 24.518 L 82.731 24.265 L 83.214 24.265 Z M 81.995 24.518 L 81.512 24.518 L 81.512 24.265 L 81.995 24.265 Z M 80.776 24.518 L 80.293 24.518 L 80.293 24.265 L 80.776 24.265 Z M 79.557 24.518 L 79.074 24.518 L 79.074 24.265 L 79.557 24.265 Z M 78.338 24.518 L 77.855 24.518 L 77.855 24.265 L 78.338 24.265 Z M 77.119 24.518 L 76.636 24.518 L 76.636 24.265 L 77.119 24.265 Z M 75.9 24.518 L 75.417 24.518 L 75.417 24.265 L 75.9 24.265 Z M 74.681 24.518 L 74.198 24.518 L 74.198 24.265 L 74.681 24.265 Z M 73.462 24.518 L 72.979 24.518 L 72.979 24.265 L 73.462 24.265 Z M 72.243 24.518 L 71.76 24.518 L 71.76 24.265 L 72.243 24.265 Z M 71.024 24.518 L 70.541 24.518 L 70.541 24.265 L 71.024 24.265 Z M 69.805 24.518 L 69.322 24.518 L 69.322 24.265 L 69.805 24.265 Z M 68.586 24.518 L 68.103 24.518 L 68.103 24.265 L 68.586 24.265 Z M 67.367 24.518 L 66.884 24.518 L 66.884 24.265 L 67.367 24.265 Z M 66.148 24.518 L 65.665 24.518 L 65.665 24.265 L 66.171 24.265 Z M 64.929 24.518 L 64.446 24.518 L 64.446 24.265 L 64.929 24.265 Z M 63.71 24.518 L 63.227 24.518 L 63.227 24.265 L 63.71 24.265 Z M 62.491 24.518 L 62.008 24.518 L 62.008 24.265 L 62.491 24.265 Z M 61.272 24.518 L 60.789 24.518 L 60.789 24.265 L 61.272 24.265 Z M 60.053 24.518 L 59.57 24.518 L 59.57 24.265 L 60.053 24.265 Z M 58.834 24.518 L 58.328 24.518 L 58.328 24.265 L 58.811 24.265 Z M 57.615 24.518 L 57.132 24.518 L 57.132 24.265 L 57.615 24.265 Z M 56.396 24.518 L 55.913 24.518 L 55.913 24.265 L 56.396 24.265 Z M 55.177 24.518 L 54.694 24.518 L 54.694 24.265 L 55.177 24.265 Z M 53.958 24.518 L 53.475 24.518 L 53.475 24.265 L 53.981 24.265 Z M 52.739 24.518 L 52.256 24.518 L 52.256 24.265 L 52.739 24.265 Z M 51.52 24.518 L 51.037 24.518 L 51.037 24.265 L 51.52 24.265 Z M 50.301 24.518 L 49.818 24.518 L 49.818 24.265 L 50.301 24.265 Z M 49.082 24.518 L 48.599 24.518 L 48.599 24.265 L 49.082 24.265 Z M 47.863 24.518 L 47.38 24.518 L 47.38 24.265 L 47.863 24.265 Z M 46.644 24.518 L 46.138 24.518 L 46.138 24.265 L 46.621 24.265 Z M 45.425 24.518 L 44.942 24.518 L 44.942 24.265 L 45.425 24.265 Z M 44.206 24.518 L 43.723 24.518 L 43.723 24.265 L 44.206 24.265 Z M 42.987 24.518 L 42.504 24.518 L 42.504 24.265 L 42.987 24.265 Z M 41.768 24.518 L 41.285 24.518 L 41.285 24.265 L 41.791 24.265 Z M 40.549 24.518 L 40.066 24.518 L 40.066 24.265 L 40.549 24.265 Z M 39.33 24.518 L 38.847 24.518 L 38.847 24.265 L 39.33 24.265 Z M 38.111 24.518 L 37.628 24.518 L 37.628 24.265 L 38.111 24.265 Z M 36.892 24.518 L 36.409 24.518 L 36.409 24.265 L 36.892 24.265 Z M 35.673 24.518 L 35.19 24.518 L 35.19 24.265 L 35.673 24.265 Z M 34.454 24.518 L 33.948 24.518 L 33.948 24.265 L 34.431 24.265 Z M 33.235 24.518 L 32.752 24.518 L 32.752 24.265 L 33.235 24.265 Z M 32.016 24.518 L 31.533 24.518 L 31.533 24.265 L 32.016 24.265 Z M 30.797 24.518 L 30.314 24.518 L 30.314 24.265 L 30.797 24.265 Z M 29.578 24.518 L 29.095 24.518 L 29.095 24.265 L 29.601 24.265 Z M 28.359 24.518 L 27.876 24.518 L 27.876 24.265 L 28.359 24.265 Z M 27.14 24.518 L 26.657 24.518 L 26.657 24.265 L 27.14 24.265 Z M 25.921 24.518 L 25.438 24.518 L 25.438 24.265 L 25.921 24.265 Z M 24.702 24.518 L 24.219 24.518 L 24.219 24.265 L 24.702 24.265 Z M 23.483 24.518 L 23 24.518 L 23 24.265 L 23.483 24.265 Z M 22.264 24.518 L 21.758 24.518 L 21.758 24.265 L 22.241 24.265 Z M 21.045 24.518 L 20.562 24.518 L 20.562 24.265 L 21.045 24.265 Z M 19.826 24.518 L 19.343 24.518 L 19.343 24.265 L 19.826 24.265 Z M 18.607 24.518 L 18.124 24.518 L 18.124 24.265 L 18.607 24.265 Z M 17.388 24.518 L 16.905 24.518 L 16.905 24.265 L 17.411 24.265 Z M 16.169 24.518 L 15.686 24.518 L 15.686 24.265 L 16.169 24.265 Z M 14.95 24.518 L 14.467 24.518 L 14.467 24.265 L 14.95 24.265 Z M 13.731 24.518 L 13.248 24.518 L 13.248 24.265 L 13.731 24.265 Z M 12.512 24.518 L 12.029 24.518 L 12.029 24.265 L 12.512 24.265 Z M 89.148 24.518 L 88.803 24.518 L 88.803 24.265 L 88.941 24.265 L 88.987 24.127 L 89.217 24.173 L 89.171 24.403 Z M 89.424 23.506 L 89.194 23.437 C 89.24 23.276 89.309 23.138 89.355 22.977 L 89.585 23.069 C 89.539 23.184 89.493 23.345 89.424 23.506 Z M 89.861 22.356 L 89.631 22.264 C 89.7 22.103 89.769 21.965 89.838 21.804 L 90.045 21.919 C 89.999 22.08 89.93 22.218 89.861 22.356 Z M 90.436 21.298 L 90.229 21.183 L 90.505 20.769 L 90.712 20.907 C 90.597 21.022 90.528 21.16 90.436 21.298 Z M 91.126 20.286 L 90.942 20.148 C 91.034 20.01 91.149 19.895 91.241 19.757 L 91.425 19.918 C 91.31 20.033 91.218 20.171 91.126 20.286 Z M 91.908 19.366 L 91.724 19.205 L 92.069 18.86 L 92.23 19.044 Z M 92.805 18.538 L 92.644 18.354 C 92.759 18.239 92.897 18.147 93.035 18.032 L 93.173 18.216 C 93.035 18.331 92.92 18.446 92.805 18.538 Z M 93.771 17.825 L 93.633 17.618 C 93.771 17.526 93.909 17.434 94.047 17.365 L 94.162 17.572 C 94.024 17.641 93.886 17.733 93.771 17.825 Z M 94.806 17.204 L 94.691 16.974 C 94.829 16.905 94.99 16.836 95.128 16.767 L 95.22 16.997 C 95.105 17.066 94.944 17.135 94.806 17.204 Z M 95.933 16.721 L 95.841 16.491 C 96.002 16.445 96.14 16.376 96.301 16.33 L 96.37 16.56 C 96.232 16.606 96.071 16.652 95.933 16.721 Z M 97.083 16.353 L 97.014 16.123 L 97.152 16.1 L 97.152 15.962 L 97.405 15.962 L 97.405 16.307 L 97.313 16.33 Z M 97.405 15.249 L 97.152 15.249 L 97.152 14.789 L 97.405 14.789 Z M 97.405 14.076 L 97.152 14.076 L 97.152 13.616 L 97.405 13.616 Z M 97.405 12.903 L 97.152 12.903 L 97.152 12.443 L 97.405 12.443 Z M 97.405 11.73 L 97.152 11.73 L 97.152 11.27 L 97.405 11.27 Z M 97.405 10.557 L 97.152 10.557 L 97.152 10.419 L 97.014 10.373 L 97.083 10.143 L 97.313 10.212 L 97.405 10.235 Z M 96.301 10.143 C 96.14 10.074 95.979 10.028 95.841 9.959 L 95.933 9.729 C 96.094 9.798 96.232 9.844 96.393 9.913 Z M 95.128 9.637 C 94.967 9.568 94.829 9.476 94.691 9.407 L 94.806 9.2 C 94.944 9.292 95.105 9.361 95.243 9.43 Z M 94.024 9.016 L 93.61 8.74 L 93.748 8.533 L 94.162 8.809 Z M 93.012 8.257 C 92.874 8.142 92.759 8.027 92.621 7.912 L 92.782 7.728 C 92.897 7.843 93.035 7.958 93.15 8.05 Z M 92.092 7.383 C 91.977 7.268 91.862 7.13 91.747 7.015 L 91.931 6.854 C 92.046 6.969 92.161 7.107 92.276 7.222 Z M 91.264 6.417 C 91.172 6.279 91.057 6.141 90.965 6.003 L 91.172 5.865 C 91.264 6.003 91.356 6.141 91.471 6.256 Z M 90.551 5.382 C 90.459 5.244 90.39 5.083 90.298 4.945 L 90.505 4.83 C 90.574 4.968 90.666 5.129 90.735 5.267 Z M 89.976 4.255 C 89.907 4.094 89.838 3.933 89.792 3.795 L 90.022 3.703 C 90.091 3.864 90.137 4.002 90.206 4.163 Z" fill="rgb(60,36,21)"></path></g><path d="M 91.583 19.692 L 92.802 19.692 L 92.802 20.911 L 91.583 20.911 Z M 14.694 19.692 L 15.913 19.692 L 15.913 20.911 L 14.694 20.911 Z" fill="rgb(60,36,21)"></path></g><path d="M 27.896 55.338 L 27.896 50.209 L 26.792 50.209 L 26.792 49.841 L 27.896 49.841 L 27.896 48.024 L 28.31 48.024 L 28.31 49.841 L 29.667 49.841 L 29.667 50.209 L 28.31 50.209 L 28.31 55.338 C 28.31 55.913 28.54 56.304 29.023 56.304 C 29.322 56.304 29.621 56.166 29.805 55.936 L 30.058 56.258 C 29.782 56.534 29.414 56.695 29.023 56.672 C 28.241 56.672 27.896 56.166 27.896 55.338 Z M 35.486 49.68 C 37.533 49.68 38.568 51.313 38.568 53.176 L 38.568 53.314 L 32.818 53.314 C 32.864 54.947 33.922 56.304 35.624 56.304 C 36.498 56.327 37.349 55.959 37.947 55.292 L 38.2 55.545 C 37.556 56.281 36.613 56.695 35.624 56.672 C 33.692 56.672 32.358 55.2 32.358 53.176 C 32.358 51.244 33.715 49.68 35.486 49.68 Z M 32.841 52.923 L 38.154 52.923 C 38.154 51.635 37.303 50.048 35.486 50.048 C 33.761 50.048 32.864 51.612 32.841 52.923 Z M 41.995 49.841 L 42.409 49.841 L 42.409 51.06 C 43.007 50.278 43.743 49.726 44.709 49.726 L 44.709 50.232 C 44.594 50.232 44.479 50.209 44.387 50.209 C 43.674 50.209 42.731 50.899 42.432 51.52 L 42.432 56.511 L 42.018 56.511 Z M 47.561 49.841 L 47.975 49.841 L 47.975 51.06 C 48.573 50.278 49.309 49.726 50.275 49.726 L 50.275 50.232 C 50.16 50.232 50.045 50.209 49.953 50.209 C 49.24 50.209 48.297 50.899 47.998 51.52 L 47.998 56.511 L 47.584 56.511 Z M 57.428 55.683 C 56.853 56.327 56.002 56.695 55.128 56.672 C 53.955 56.672 52.805 55.867 52.805 54.464 C 52.805 53.061 53.955 52.233 55.128 52.233 C 56.002 52.21 56.853 52.555 57.428 53.199 L 57.428 51.704 C 57.428 50.623 56.577 50.048 55.542 50.048 C 54.668 50.048 54.024 50.347 53.403 51.106 L 53.081 50.83 C 53.656 50.071 54.576 49.634 55.542 49.68 C 56.853 49.68 57.842 50.347 57.842 51.704 L 57.842 56.511 L 57.428 56.511 Z M 57.428 53.613 C 56.899 52.946 56.094 52.578 55.243 52.601 C 54.024 52.601 53.265 53.406 53.265 54.441 C 53.265 55.476 54.047 56.281 55.243 56.281 C 56.094 56.304 56.899 55.936 57.428 55.269 Z M 61.959 57.293 C 62.511 57.937 63.178 58.167 64.098 58.167 C 65.133 58.167 66.168 57.661 66.168 56.258 L 66.168 55.407 C 65.662 56.12 64.834 56.534 63.983 56.557 C 62.258 56.557 61.016 55.292 61.016 53.107 C 61.016 50.968 62.258 49.68 63.983 49.68 C 64.857 49.68 65.685 50.094 66.191 50.807 L 66.191 49.841 L 67.433 49.841 L 67.433 56.235 C 67.433 58.535 65.754 59.202 64.121 59.202 C 62.994 59.202 62.189 58.972 61.384 58.213 Z M 66.168 51.75 C 65.749 51.147 65.062 50.786 64.328 50.784 C 63.086 50.784 62.304 51.75 62.304 53.107 C 62.304 54.464 63.086 55.453 64.328 55.453 C 65.064 55.43 65.754 55.062 66.168 54.464 Z M 70.561 47.932 C 70.561 47.495 70.929 47.127 71.366 47.127 C 71.803 47.127 72.171 47.495 72.171 47.932 C 72.171 48.369 71.826 48.714 71.389 48.714 C 70.929 48.714 70.561 48.369 70.561 47.932 Z M 70.745 49.841 L 71.987 49.841 L 71.987 56.511 L 70.768 56.511 Z M 79.462 55.775 C 78.887 56.373 78.105 56.695 77.277 56.672 C 76.173 56.672 74.954 55.936 74.954 54.464 C 74.954 52.946 76.15 52.279 77.277 52.279 C 78.174 52.279 78.956 52.578 79.462 53.153 L 79.462 52.049 C 79.462 51.221 78.795 50.715 77.829 50.715 C 77.07 50.715 76.334 51.037 75.828 51.589 L 75.299 50.738 C 76.012 50.025 77.001 49.634 78.036 49.657 C 79.485 49.657 80.704 50.301 80.704 51.98 L 80.704 56.465 L 79.462 56.465 Z M 79.462 53.912 C 79.048 53.406 78.404 53.13 77.76 53.153 C 76.863 53.153 76.219 53.682 76.219 54.487 C 76.219 55.292 76.863 55.821 77.76 55.821 C 78.427 55.844 79.048 55.568 79.462 55.062 Z" fill="rgb(60,36,21)"></path><path d="M 27.39 22.701 L 27.16 22.701 L 27.16 19.941 L 27.827 19.941 C 28.08 19.918 28.356 19.987 28.563 20.148 C 28.747 20.309 28.839 20.539 28.839 20.769 C 28.839 21.022 28.747 21.275 28.54 21.436 C 28.333 21.574 28.103 21.62 27.873 21.597 L 27.413 21.597 Z M 27.804 21.39 C 27.942 21.39 28.057 21.367 28.172 21.344 C 28.425 21.275 28.586 21.045 28.586 20.769 C 28.586 20.516 28.425 20.263 28.172 20.194 C 28.034 20.148 27.873 20.148 27.735 20.148 L 27.39 20.148 L 27.39 21.39 Z M 31.231 22.701 L 31.001 22.701 L 31.001 19.941 L 31.714 19.941 C 32.243 19.941 32.588 20.24 32.588 20.723 C 32.611 21.045 32.427 21.321 32.128 21.459 C 31.99 21.505 31.829 21.528 31.668 21.528 L 31.576 21.528 L 32.818 22.724 L 32.496 22.724 L 31.254 21.528 Z M 31.645 21.321 C 32.105 21.321 32.358 21.114 32.358 20.723 C 32.358 20.332 32.128 20.148 31.691 20.148 L 31.231 20.148 L 31.231 21.321 Z M 35.187 21.206 L 36.337 21.206 L 36.337 21.413 L 35.187 21.413 L 35.187 22.494 L 36.337 22.494 L 36.337 22.701 L 34.957 22.701 L 34.957 19.941 L 36.337 19.941 L 36.337 20.148 L 35.187 20.148 Z M 38.913 22.701 L 38.683 22.701 L 38.683 19.941 L 38.867 19.941 L 39.994 22.218 L 41.144 19.941 L 41.328 19.941 L 41.328 22.701 L 41.098 22.701 L 41.098 20.516 L 40.017 22.701 L 38.936 20.516 Z M 44.042 22.701 L 43.812 22.701 L 43.812 19.941 L 44.042 19.941 Z M 46.71 21.597 C 46.71 22.011 46.779 22.195 46.917 22.333 C 47.216 22.609 47.676 22.609 47.998 22.333 C 48.182 22.172 48.228 22.011 48.228 21.597 L 48.228 19.964 L 48.458 19.964 L 48.458 21.62 C 48.458 22.034 48.389 22.241 48.228 22.448 C 48.044 22.655 47.745 22.793 47.469 22.77 C 47.17 22.77 46.871 22.655 46.687 22.425 C 46.526 22.218 46.48 22.057 46.48 21.62 L 46.48 19.964 L 46.71 19.964 Z M 51.126 22.701 L 50.896 22.701 L 50.896 19.941 L 51.08 19.941 L 52.207 22.218 L 53.357 19.941 L 53.541 19.941 L 53.541 22.701 L 53.311 22.701 L 53.311 20.516 L 52.23 22.701 L 51.149 20.516 Z M 61.108 22.264 C 61.016 22.402 60.901 22.517 60.763 22.586 C 60.556 22.701 60.349 22.747 60.119 22.747 C 59.774 22.747 59.429 22.609 59.176 22.333 C 58.946 22.034 58.808 21.689 58.808 21.298 C 58.808 20.47 59.36 19.872 60.096 19.872 C 60.487 19.872 60.855 20.056 61.085 20.355 L 60.901 20.493 C 60.832 20.401 60.74 20.309 60.625 20.24 C 60.464 20.125 60.257 20.079 60.073 20.079 C 59.475 20.079 59.015 20.585 59.015 21.298 C 59.015 22.011 59.475 22.517 60.073 22.517 C 60.395 22.517 60.694 22.356 60.878 22.08 Z M 65.409 20.378 C 65.616 20.654 65.731 21.022 65.708 21.367 C 65.754 22.103 65.202 22.724 64.466 22.77 C 64.029 22.793 63.592 22.609 63.339 22.241 C 63.155 21.988 63.063 21.666 63.086 21.344 C 63.063 20.953 63.224 20.562 63.5 20.286 C 64.006 19.78 64.811 19.78 65.317 20.263 C 65.34 20.309 65.363 20.355 65.409 20.378 Z M 63.316 21.321 C 63.316 22.034 63.753 22.54 64.397 22.54 C 64.696 22.54 64.995 22.402 65.202 22.195 C 65.386 21.965 65.501 21.666 65.501 21.344 C 65.524 20.999 65.409 20.677 65.179 20.424 C 64.972 20.24 64.719 20.125 64.443 20.102 C 63.776 20.102 63.316 20.631 63.316 21.321 Z M 68.261 21.206 L 69.388 21.206 L 69.388 21.413 L 68.261 21.413 L 68.261 22.701 L 68.031 22.701 L 68.031 19.941 L 69.411 19.941 L 69.411 20.148 L 68.284 20.148 Z M 71.872 21.206 L 72.999 21.206 L 72.999 21.413 L 71.872 21.413 L 71.872 22.701 L 71.642 22.701 L 71.642 19.941 L 73.022 19.941 L 73.022 20.148 L 71.895 20.148 Z M 75.46 21.206 L 76.61 21.206 L 76.61 21.413 L 75.46 21.413 L 75.46 22.494 L 76.61 22.494 L 76.61 22.701 L 75.23 22.701 L 75.23 19.941 L 76.61 19.941 L 76.61 20.148 L 75.46 20.148 Z M 79.186 21.206 L 80.336 21.206 L 80.336 21.413 L 79.186 21.413 L 79.186 22.494 L 80.336 22.494 L 80.336 22.701 L 78.956 22.701 L 78.956 19.941 L 80.336 19.941 L 80.336 20.148 L 79.186 20.148 Z M 29.437 86.411 L 29.207 86.411 L 29.207 83.651 L 29.437 83.651 Z M 32.151 86.411 L 31.921 86.411 L 31.921 83.651 L 32.128 83.651 L 33.761 85.905 L 33.761 83.651 L 33.991 83.651 L 33.991 86.411 L 33.807 86.411 L 32.151 84.111 Z M 36.452 83.651 L 37.165 83.651 C 37.947 83.651 38.453 84.157 38.453 84.985 C 38.453 85.882 37.947 86.411 37.05 86.411 L 36.452 86.411 Z M 36.682 86.204 L 36.82 86.204 C 37.372 86.204 37.579 86.158 37.809 85.997 C 38.108 85.744 38.246 85.376 38.223 84.985 C 38.223 84.272 37.855 83.881 37.165 83.881 L 36.705 83.881 L 36.705 86.204 Z M 42.915 84.088 C 43.145 84.364 43.237 84.732 43.214 85.077 C 43.26 85.813 42.708 86.434 41.972 86.48 C 41.535 86.503 41.098 86.319 40.845 85.951 C 40.661 85.698 40.569 85.376 40.592 85.077 C 40.569 84.686 40.73 84.295 41.006 84.019 C 41.259 83.766 41.581 83.628 41.926 83.628 C 42.294 83.605 42.662 83.789 42.915 84.088 Z M 40.822 85.031 C 40.822 85.744 41.282 86.25 41.903 86.25 C 42.202 86.25 42.501 86.112 42.708 85.905 C 42.892 85.675 42.984 85.376 42.984 85.054 C 43.007 84.709 42.892 84.387 42.662 84.134 C 42.455 83.95 42.202 83.835 41.926 83.812 C 41.282 83.812 40.822 84.341 40.822 85.031 Z M 47.676 84.088 C 47.883 84.364 47.998 84.709 47.975 85.077 C 48.021 85.813 47.469 86.434 46.733 86.48 C 46.296 86.503 45.859 86.319 45.606 85.951 C 45.422 85.698 45.33 85.376 45.353 85.077 C 45.33 84.686 45.491 84.295 45.767 84.019 C 46.02 83.766 46.342 83.628 46.687 83.628 C 47.055 83.605 47.423 83.789 47.676 84.088 Z M 45.583 85.031 C 45.583 85.744 46.043 86.25 46.664 86.25 C 46.963 86.25 47.262 86.112 47.469 85.905 C 47.653 85.675 47.768 85.376 47.745 85.054 C 47.768 84.709 47.653 84.387 47.4 84.134 C 47.193 83.927 46.94 83.835 46.664 83.812 C 46.043 83.812 45.583 84.341 45.583 85.031 Z M 50.528 86.411 L 50.298 86.411 L 50.298 83.651 L 50.988 83.651 C 51.517 83.651 51.862 83.95 51.862 84.433 C 51.885 84.755 51.678 85.054 51.402 85.169 C 51.264 85.215 51.103 85.238 50.942 85.238 L 50.85 85.238 L 52.092 86.434 L 51.77 86.434 L 50.551 85.238 L 50.551 86.411 Z M 50.919 85.031 C 51.379 85.031 51.632 84.824 51.632 84.433 C 51.632 84.042 51.402 83.858 50.965 83.858 L 50.505 83.858 L 50.505 85.031 Z M 57.52 86.411 L 57.29 86.411 L 57.29 83.651 L 57.957 83.651 C 58.21 83.628 58.486 83.697 58.693 83.858 C 58.877 84.019 58.969 84.249 58.969 84.479 C 58.969 84.732 58.854 84.985 58.67 85.146 C 58.486 85.284 58.233 85.33 58.003 85.307 L 57.543 85.307 Z M 57.934 85.1 C 58.072 85.1 58.187 85.1 58.302 85.054 C 58.555 84.985 58.716 84.755 58.716 84.479 C 58.716 84.203 58.555 83.973 58.302 83.904 C 58.164 83.858 58.003 83.858 57.865 83.858 L 57.52 83.858 L 57.52 85.077 L 57.934 85.077 Z M 62.35 86.181 L 62.35 86.411 L 61.108 86.411 L 61.108 83.651 L 61.338 83.651 L 61.338 86.181 Z M 64.88 85.698 L 64.581 86.434 L 64.351 86.434 L 65.432 83.674 L 65.685 83.674 L 66.743 86.434 L 66.467 86.434 L 66.191 85.698 Z M 65.57 83.973 L 64.995 85.468 L 66.168 85.468 Z M 69.135 86.411 L 68.905 86.411 L 68.905 83.651 L 69.112 83.651 L 70.745 85.905 L 70.745 83.651 L 70.975 83.651 L 70.975 86.411 L 70.768 86.411 L 69.112 84.111 Z M 74.057 86.411 L 73.827 86.411 L 73.827 83.858 L 73.114 83.858 L 73.114 83.651 L 74.793 83.651 L 74.793 83.858 L 74.057 83.858 Z M 76.955 85.721 C 76.955 85.836 76.978 85.928 77.024 86.043 C 77.116 86.204 77.3 86.273 77.484 86.273 C 77.783 86.296 78.059 86.089 78.105 85.767 L 78.105 85.698 C 78.105 85.422 77.967 85.284 77.484 85.146 C 77.277 85.1 77.093 85.008 76.955 84.893 C 76.817 84.755 76.748 84.571 76.748 84.387 C 76.725 83.973 77.047 83.651 77.461 83.628 L 77.53 83.628 C 77.921 83.605 78.266 83.904 78.289 84.295 L 78.289 84.387 L 78.059 84.387 C 78.059 84.272 78.036 84.157 77.99 84.065 C 77.875 83.904 77.714 83.835 77.53 83.835 C 77.254 83.812 77.001 84.042 77.001 84.341 L 77.001 84.387 C 77.001 84.525 77.047 84.64 77.162 84.732 C 77.323 84.847 77.484 84.916 77.668 84.962 C 77.875 85.008 78.059 85.123 78.197 85.261 C 78.312 85.399 78.358 85.56 78.358 85.744 C 78.358 86.158 78.013 86.503 77.599 86.526 L 77.53 86.526 C 77.3 86.549 77.093 86.457 76.932 86.296 C 76.817 86.181 76.748 85.997 76.748 85.836 L 76.748 85.767 Z" fill="rgb(60,36,21)"></path><path d="M 36.176 102.787 L 35.233 105.455 L 34.704 105.271 L 35.946 101.798 L 36.475 101.982 L 37.441 105.248 L 38.361 102.649 L 38.89 102.833 L 37.648 106.306 L 37.142 106.122 Z M 41.834 103.707 L 42.386 103.822 L 41.903 105.984 C 41.765 106.605 42.018 107.065 42.639 107.203 C 43.26 107.341 43.697 107.019 43.835 106.398 L 44.318 104.236 L 44.87 104.351 L 44.387 106.536 C 44.18 107.433 43.559 107.893 42.547 107.686 C 41.535 107.479 41.167 106.766 41.351 105.892 Z M 48.941 107.203 L 48.251 107.134 L 48.113 108.537 L 47.561 108.491 L 47.929 104.834 L 49.47 104.995 C 50.16 105.064 50.597 105.57 50.528 106.237 C 50.505 106.789 50.045 107.203 49.516 107.226 L 50.321 108.79 L 49.677 108.721 Z M 49.355 105.478 L 48.435 105.386 L 48.32 106.674 L 49.24 106.766 C 49.585 106.835 49.93 106.582 49.976 106.237 C 50.045 105.892 49.792 105.547 49.447 105.501 C 49.401 105.478 49.378 105.478 49.355 105.478 Z M 53.725 107.985 C 54.024 108.307 54.461 108.491 54.898 108.491 C 55.496 108.491 55.703 108.169 55.703 107.916 C 55.703 107.525 55.266 107.433 54.806 107.318 C 54.208 107.18 53.518 107.019 53.518 106.26 C 53.518 105.662 54.024 105.202 54.806 105.179 C 55.312 105.156 55.795 105.34 56.163 105.662 L 55.841 106.076 C 55.565 105.8 55.174 105.639 54.76 105.662 C 54.346 105.662 54.07 105.892 54.07 106.191 C 54.07 106.49 54.484 106.628 54.944 106.72 C 55.542 106.881 56.255 107.042 56.278 107.824 C 56.278 108.399 55.91 108.928 54.898 108.951 C 54.346 108.974 53.817 108.79 53.426 108.399 Z M 59.13 105.018 L 61.591 104.719 L 61.637 105.202 L 59.728 105.432 L 59.843 106.49 L 61.706 106.26 L 61.752 106.743 L 59.889 106.973 L 60.027 108.123 L 61.936 107.893 L 61.982 108.376 L 59.521 108.675 Z M 66.214 106.122 L 65.547 106.283 L 65.869 107.663 L 65.34 107.778 L 64.512 104.19 L 66.03 103.845 C 66.605 103.661 67.226 103.983 67.41 104.558 C 67.433 104.604 67.433 104.627 67.433 104.673 C 67.594 105.202 67.295 105.754 66.789 105.938 L 68.054 107.157 L 67.433 107.295 Z M 66.053 104.351 L 65.156 104.558 L 65.455 105.823 L 66.352 105.616 C 66.697 105.547 66.927 105.202 66.858 104.857 C 66.789 104.512 66.444 104.282 66.099 104.351 C 66.076 104.328 66.076 104.328 66.053 104.351 Z M 71.642 104.443 L 69.572 102.902 L 70.17 102.695 L 71.734 103.891 L 72.194 101.982 L 72.792 101.775 L 72.148 104.282 L 72.654 105.731 L 72.125 105.915 Z M 44.226 2.737 C 44.042 1.748 44.686 0.782 45.675 0.575 C 45.721 0.575 45.744 0.552 45.79 0.552 C 46.365 0.437 46.963 0.644 47.354 1.104 L 46.917 1.426 C 46.641 1.127 46.25 0.989 45.859 1.058 C 45.123 1.173 44.64 1.84 44.778 2.668 C 44.847 3.404 45.491 3.933 46.227 3.864 L 46.296 3.864 C 46.687 3.795 47.032 3.542 47.193 3.174 L 47.699 3.358 C 47.469 3.91 46.963 4.278 46.365 4.347 C 45.376 4.531 44.41 3.864 44.226 2.875 C 44.249 2.806 44.226 2.783 44.226 2.737 Z M 52.966 2.898 L 51.172 2.967 L 50.919 3.749 L 50.321 3.772 L 51.609 0.023 L 52.299 0 L 53.909 3.611 L 53.288 3.657 Z M 51.287 2.484 L 52.759 2.415 L 51.931 0.506 Z M 56.899 0 L 59.36 0.138 L 59.337 0.621 L 57.428 0.506 L 57.359 1.587 L 59.245 1.702 L 59.222 2.185 L 57.336 2.07 L 57.244 3.703 L 56.692 3.68 Z M 62.649 0.529 L 65.087 0.92 L 65.018 1.403 L 63.132 1.104 L 62.948 2.162 L 64.811 2.461 L 64.742 2.944 L 62.879 2.645 L 62.695 3.772 L 64.581 4.071 L 64.512 4.554 L 62.074 4.163 Z" fill="rgb(60,36,21)"></path></g></g></g></svg>